<?xml version="1.0" encoding="UTF-8" standalone="no"?>
<!DOCTYPE svg PUBLIC "-//W3C//DTD SVG 1.1//EN" "http://www.w3.org/Graphics/SVG/1.1/DTD/svg11.dtd">
<svg version="1.1" xmlns="http://www.w3.org/2000/svg" xmlns:xlink="http://www.w3.org/1999/xlink" preserveAspectRatio="xMidYMid meet" viewBox="0 0 400 400" width="400" height="400"><defs><path d="M350 193.24C350 276.03 282.79 343.24 200 343.24C117.21 343.24 50 276.03 50 193.24C50 110.45 117.21 43.24 200 43.24C282.79 43.24 350 110.45 350 193.24Z" id="a3BJFHUn8"></path><radialGradient id="gradientfyN2Th74H" gradientUnits="userSpaceOnUse" cx="350" cy="195.14" r="237.31"><stop style="stop-color: #ffffff;stop-opacity: 1" offset="0%"></stop><stop style="stop-color: #a5f0ff;stop-opacity: 1" offset="29.012480093600683%"></stop><stop style="stop-color: #65e0e7;stop-opacity: 1" offset="59.52695895219217%"></stop><stop style="stop-color: #326fa7;stop-opacity: 1" offset="100%"></stop></radialGradient><path d="M262.5 195.14C262.5 229.63 234.49 257.64 200 257.64C165.51 257.64 137.5 229.63 137.5 195.14C137.5 160.64 165.51 132.64 200 132.64C234.49 132.64 262.5 160.64 262.5 195.14Z" id="dLgBgEMi5"></path><path d="M268.6 158.26C268.6 172.41 257.4 183.89 243.6 183.89C229.8 183.89 218.6 172.41 218.6 158.26C218.6 144.12 229.8 132.64 243.6 132.64C257.4 132.64 268.6 144.12 268.6 158.26Z" id="g2PFaIzYRd"></path></defs><g><g><g><use xlink:href="#a3BJFHUn8" opacity="1" fill="url(#gradientfyN2Th74H)"></use><g><use xlink:href="#a3BJFHUn8" opacity="1" fill-opacity="0" stroke="#b0d6ef" stroke-width="0" stroke-opacity="1"></use></g></g><g><use xlink:href="#dLgBgEMi5" opacity="1" fill="#181d3c" fill-opacity="1"></use></g><g><use xlink:href="#g2PFaIzYRd" opacity="1" fill="#ffffff" fill-opacity="1"></use></g></g></g></svg>